# xmcd
#
# Track frame offsets:
# 150
# 11265
# 27057
# 39656
# 53163
# 63663
# 77371
# 90406
# 102353
# 120272
#
# Disc length: 1737 seconds
#
#
# Revision: 1
# Processed by: cddbd v1.5.2PL0 Copyright (c) Steve Scherf et al.
# Submitted via: FreeRIP 2.96 
#
DISCID=6806c70a
DTITLE=Hayseed Dixie - A Hillbilly Tribune to AC/DC
DYEAR=2001
DGENRE=Blues
TTITLE0=Highway to Hell
TTITLE1=You Shook Me All Night Long
TTITLE2=Dirty Deeds Done Dirt Cheap
TTITLE3=Hells Bells
TTITLE4=Money Talks
TTITLE5=Lets's Get It Up
TTITLE6=Have A Drink On Me
TTITLE7=T.N.T.
TTITLE8=Back In Black
TTITLE9=Big Balls
EXTD=YEAR: 2001
EXTT0=
EXTT1=
EXTT2=
EXTT3=
EXTT4=
EXTT5=
EXTT6=
EXTT7=
EXTT8=
EXTT9=
PLAYORDER=
